<svg width="100" height="100" viewBox="0 0 100 100" fill="none" xmlns="http://www.w3.org/2000/svg">
<rect x="10" y="59" width="13" height="29" fill="#21B2E4"/>
<rect x="27" y="67" width="13" height="21" fill="#21B2E4"/>
<rect x="44" y="46" width="13" height="42" fill="#21B2E4"/>
<rect x="60" y="55" width="13" height="33" fill="#21B2E4"/>
<rect x="77" y="38" width="13" height="50" fill="#21B2E4"/>
<path fill-rule="evenodd" clip-rule="evenodd" d="M89 18.5C89 21.5376 86.5376 24 83.5 24C83.0358 24 82.585 23.9425 82.1543 23.8342L71.5039 29.7859C70.6362 31.6824 68.722 33 66.5 33C64.6513 33 63.0157 32.0879 62.0185 30.6892L52.7714 27.5105C52.079 27.8249 51.31 28 50.5 28C50.4684 28 50.4369 27.9997 50.4055 27.9992L38.9134 38.4773C38.4523 41.0486 36.204 43 33.5 43C31.8008 43 30.2817 42.2295 29.2728 41.0188L19.1271 38.3332C18.3465 38.7584 17.4515 39 16.5 39C13.4624 39 11 36.5376 11 33.5C11 30.4624 13.4624 28 16.5 28C18.473 28 20.2033 29.0389 21.1739 30.5994L30.3113 33.0182C31.2107 32.3771 32.3113 32 33.5 32C33.7053 32 33.9079 32.0112 34.1074 32.0332L45.0152 22.0878C45.226 19.2428 47.6011 17 50.5 17C52.6152 17 54.4516 18.1941 55.3718 19.945L63.6547 22.7922C64.4848 22.2894 65.4586 22 66.5 22C67.1755 22 67.8226 22.1218 68.4205 22.3446L78.2515 16.8508C78.9522 14.619 81.037 13 83.5 13C86.5376 13 89 15.4624 89 18.5Z" fill="#233883"/>
</svg>
